<svg width="48" height="66" xmlns="http://www.w3.org/2000/svg" xmlns:xlink="http://www.w3.org/1999/xlink">
    <defs>
        <path d="M29.583 0H4.438A4.45 4.45 0 0 0 0 4.438v56.208a4.45 4.45 0 0 0 4.438 4.437h38.458a4.45 4.45 0 0 0 4.437-4.437V17.75L29.583 0Z" id="a"/>
        <path d="M29.583 0H4.438A4.45 4.45 0 0 0 0 4.438v56.208a4.45 4.45 0 0 0 4.438 4.437h38.458a4.45 4.45 0 0 0 4.437-4.437V17.75L29.583 0Z" id="c"/>
        <path d="M29.583 0H4.438A4.45 4.45 0 0 0 0 4.438v56.208a4.45 4.45 0 0 0 4.438 4.437h38.458a4.45 4.45 0 0 0 4.437-4.437V17.75L29.583 0Z" id="e"/>
        <path d="M29.583 0H4.438A4.45 4.45 0 0 0 0 4.438v56.208a4.45 4.45 0 0 0 4.438 4.437h38.458a4.45 4.45 0 0 0 4.437-4.437V17.75L29.583 0Z" id="h"/>
        <path d="M29.583 0H4.438A4.45 4.45 0 0 0 0 4.438v56.208a4.45 4.45 0 0 0 4.438 4.437h38.458a4.45 4.45 0 0 0 4.437-4.437V17.75L29.583 0Z" id="j"/>
        <path d="M29.583 0H4.438A4.45 4.45 0 0 0 0 4.438v56.208a4.45 4.45 0 0 0 4.438 4.437h38.458a4.45 4.45 0 0 0 4.437-4.437V17.75L29.583 0Z" id="l"/>
        <path d="M29.583 0H4.438A4.45 4.45 0 0 0 0 4.438v56.208a4.45 4.45 0 0 0 4.438 4.437h38.458a4.45 4.45 0 0 0 4.437-4.437V17.75L29.583 0Z" id="n"/>
        <path d="M29.583 0H4.438A4.45 4.45 0 0 0 0 4.438v56.208a4.45 4.45 0 0 0 4.438 4.437h38.458a4.45 4.45 0 0 0 4.437-4.437V17.75L29.583 0Z" id="p"/>
        <radialGradient cx="3.168%" cy="2.717%" fx="3.168%" fy="2.717%" r="161.249%" gradientTransform="matrix(1 0 0 .72727 0 .007)" id="r">
            <stop stop-color="#FFF" stop-opacity=".1" offset="0%"/>
            <stop stop-color="#FFF" stop-opacity="0" offset="100%"/>
        </radialGradient>
        <linearGradient x1="50.005%" y1="8.586%" x2="50.005%" y2="100.014%" id="f">
            <stop stop-color="#BF360C" stop-opacity=".2" offset="0%"/>
            <stop stop-color="#BF360C" stop-opacity=".02" offset="100%"/>
        </linearGradient>
    </defs>
    <g fill="none" fill-rule="evenodd">
        <g>
            <mask id="b" fill="#fff">
                <use xlink:href="#a"/>
            </mask>
            <path d="M29.583 0H4.438A4.45 4.45 0 0 0 0 4.438v56.208a4.45 4.45 0 0 0 4.438 4.437h38.458a4.45 4.45 0 0 0 4.437-4.437V17.75L36.98 10.354 29.583 0Z" fill="#F4B400" fill-rule="nonzero" mask="url(#b)"/>
        </g>
        <g>
            <mask id="d" fill="#fff">
                <use xlink:href="#c"/>
            </mask>
            <path d="M33.281 29.583H14.052c-1.22 0-2.219.999-2.219 2.22V51.03c0 1.22.999 2.219 2.22 2.219H33.28c1.22 0 2.219-.998 2.219-2.219V31.802c0-1.22-.998-2.219-2.219-2.219Zm-.74 17.01h-17.75V36.24h17.75v10.354Z" fill="#F1F1F1" fill-rule="nonzero" mask="url(#d)"/>
        </g>
        <g>
            <mask id="g" fill="#fff">
                <use xlink:href="#e"/>
            </mask>
            <path fill="url(#f)" fill-rule="nonzero" mask="url(#g)" d="M30.881 16.452 47.333 32.9V17.75z"/>
        </g>
        <g>
            <mask id="i" fill="#fff">
                <use xlink:href="#h"/>
            </mask>
            <g mask="url(#i)">
                <path d="M29.583 0v13.313a4.436 4.436 0 0 0 4.438 4.437h13.312L29.583 0Z" fill="#FADA80" fill-rule="nonzero"/>
            </g>
        </g>
        <g>
            <mask id="k" fill="#fff">
                <use xlink:href="#j"/>
            </mask>
            <path fill-opacity=".1" fill="#FFF" fill-rule="nonzero" mask="url(#k)" d="M29.583 0v.37l17.38 17.38h.37z"/>
        </g>
        <g>
            <mask id="m" fill="#fff">
                <use xlink:href="#l"/>
            </mask>
            <path d="M4.438 0A4.45 4.45 0 0 0 0 4.438v.37A4.45 4.45 0 0 1 4.438.37h25.145V0H4.438Z" fill-opacity=".2" fill="#FFF" fill-rule="nonzero" mask="url(#m)"/>
        </g>
        <g>
            <mask id="o" fill="#fff">
                <use xlink:href="#n"/>
            </mask>
            <path d="M42.896 64.714H4.437A4.45 4.45 0 0 1 0 60.276v.37a4.45 4.45 0 0 0 4.438 4.437h38.458a4.45 4.45 0 0 0 4.437-4.437v-.37a4.45 4.45 0 0 1-4.437 4.438Z" fill-opacity=".2" fill="#BF360C" fill-rule="nonzero" mask="url(#o)"/>
        </g>
        <g>
            <mask id="q" fill="#fff">
                <use xlink:href="#p"/>
            </mask>
            <path d="M34.02 17.75a4.436 4.436 0 0 1-4.437-4.438v.37a4.436 4.436 0 0 0 4.438 4.438h13.312v-.37H34.021Z" fill-opacity=".1" fill="#BF360C" fill-rule="nonzero" mask="url(#q)"/>
        </g>
        <path d="M29.583 0H4.438A4.45 4.45 0 0 0 0 4.438v56.208a4.45 4.45 0 0 0 4.438 4.437h38.458a4.45 4.45 0 0 0 4.437-4.437V17.75L29.583 0Z" fill="url(#r)" fill-rule="nonzero"/>
    </g>
</svg>
